<?xml version="1.0" encoding="UTF-8" standalone="no"?>
<!-- Created with Inkscape (http://www.inkscape.org/) -->

<svg
   xmlns:dc="http://purl.org/dc/elements/1.1/"
   xmlns:cc="http://creativecommons.org/ns#"
   xmlns:rdf="http://www.w3.org/1999/02/22-rdf-syntax-ns#"
   xmlns:svg="http://www.w3.org/2000/svg"
   xmlns="http://www.w3.org/2000/svg"
   xmlns:sodipodi="http://sodipodi.sourceforge.net/DTD/sodipodi-0.dtd"
   xmlns:inkscape="http://www.inkscape.org/namespaces/inkscape"
   width="960"
   height="800"
   id="svg2"
   version="1.1"
   inkscape:version="0.48.5 r10040"
   sodipodi:docname="schemat.svg"
   inkscape:export-xdpi="139"
   inkscape:export-ydpi="139">
  <defs
     id="defs4" />
  <sodipodi:namedview
     id="base"
     pagecolor="#ffffff"
     bordercolor="#666666"
     borderopacity="1.0"
     inkscape:pageopacity="0.0"
     inkscape:pageshadow="2"
     inkscape:zoom="32"
     inkscape:cx="656.96994"
     inkscape:cy="109.1786"
     inkscape:document-units="px"
     inkscape:current-layer="layer2"
     showgrid="true"
     inkscape:window-width="1024"
     inkscape:window-height="702"
     inkscape:window-x="0"
     inkscape:window-y="27"
     inkscape:window-maximized="1">
    <inkscape:grid
       type="xygrid"
       id="grid2985"
       empspacing="5"
       visible="true"
       enabled="true"
       snapvisiblegridlinesonly="true" />
  </sodipodi:namedview>
  <metadata
     id="metadata7">
    <rdf:RDF>
      <cc:Work
         rdf:about="">
        <dc:format>image/svg+xml</dc:format>
        <dc:type
           rdf:resource="http://purl.org/dc/dcmitype/StillImage" />
        <dc:title></dc:title>
      </cc:Work>
    </rdf:RDF>
  </metadata>
  <g
     inkscape:groupmode="layer"
     id="layer3"
     inkscape:label="laser"
     style="display:inline">
    <rect
       style="fill:#a3312a;fill-opacity:1;stroke:none;display:inline"
       id="rect3163"
       width="960"
       height="800"
       x="0"
       y="0"
       rx="2.5"
       ry="3" />
    <path
       style="fill:none;stroke:#0099d4;stroke-width:5;stroke-linecap:butt;stroke-linejoin:miter;stroke-miterlimit:4;stroke-opacity:1;stroke-dasharray:none"
       d="m 545,690 -305,0 0,-345"
       id="path4010"
       inkscape:connector-curvature="0"
       sodipodi:nodetypes="ccc" />
    <path
       style="fill:none;stroke:#0099d4;stroke-width:5;stroke-linecap:butt;stroke-linejoin:miter;stroke-miterlimit:4;stroke-opacity:1;stroke-dasharray:none"
       d="m 650,420 -525,0"
       id="path4010-0"
       inkscape:connector-curvature="0"
       sodipodi:nodetypes="cc" />
  </g>
  <g
     inkscape:groupmode="layer"
     id="layer2"
     inkscape:label="interferometr"
     style="display:inline">
    <path
       style="fill:#ffffff;stroke:#2d2c2b;stroke-width:3;stroke-linecap:butt;stroke-linejoin:round;stroke-miterlimit:4;stroke-opacity:1;stroke-dasharray:none;fill-opacity:1"
       d="m 630,275 15,0 0,10 -15,0 z"
       id="path4552"
       inkscape:connector-curvature="0"
       sodipodi:nodetypes="ccccc" />
    <path
       style="fill:none;stroke:#2d2c2b;stroke-width:3;stroke-linecap:butt;stroke-linejoin:round;stroke-miterlimit:4;stroke-opacity:1;stroke-dasharray:none"
       d="m 645,280 c 0,0 71.66667,0 135,0 10,0 15,5 15,15 0,10 -5,15 -15,15 l -55,0 c -10,0 -15,5 -15,15 0,10 5,15 15,15 70,0 120.21739,0 120.21739,0 10,0 15.01115,5.00001 15,15 L 860,550 c -0.0112,9.99999 -5,15 -15,15"
       id="path4503"
       inkscape:connector-curvature="0"
       sodipodi:nodetypes="csssssscssc" />
    <path
       style="fill:#ffffff;stroke:#2d2c2b;stroke-width:3;stroke-linecap:butt;stroke-linejoin:round;stroke-miterlimit:4;stroke-opacity:1;stroke-dasharray:none;fill-opacity:1"
       d="m 560,679 -10,0 -5,6 0,10 5,6 10,0"
       id="path4007"
       inkscape:connector-curvature="0"
       sodipodi:nodetypes="cccccc" />
    <path
       style="fill:none;stroke:#2d2c2b;stroke-width:1px;stroke-linecap:butt;stroke-linejoin:miter;stroke-opacity:1"
       d="m 550,688 10,0"
       id="path4041-6"
       inkscape:connector-curvature="0" />
    <path
       style="fill:none;stroke:#2d2c2b;stroke-width:1px;stroke-linecap:butt;stroke-linejoin:miter;stroke-opacity:1"
       d="m 550,698 10,0"
       id="path4041-5"
       inkscape:connector-curvature="0" />
    <path
       style="fill:none;stroke:#2d2c2b;stroke-width:3;stroke-linecap:butt;stroke-linejoin:miter;stroke-miterlimit:4;stroke-opacity:1;stroke-dasharray:none"
       d="m 550,680 0,20"
       id="path4041-0"
       inkscape:connector-curvature="0"
       sodipodi:nodetypes="cc" />
    <path
       style="fill:none;stroke:#2d2c2b;stroke-width:1px;stroke-linecap:butt;stroke-linejoin:miter;stroke-opacity:1"
       d="m 550,682 10,0"
       id="path4041-2"
       inkscape:connector-curvature="0" />
    <path
       style="fill:none;stroke:#2d2c2b;stroke-width:1px;stroke-linecap:butt;stroke-linejoin:miter;stroke-opacity:1"
       d="m 550,692 10,0"
       id="path4041-8"
       inkscape:connector-curvature="0" />
    <path
       style="fill:#ffffff;stroke:#2d2c2b;stroke-width:3;stroke-linecap:butt;stroke-linejoin:round;stroke-miterlimit:4;stroke-opacity:1;stroke-dasharray:none;fill-opacity:1"
       d="m 660,400 -10,0 0,40 10,0"
       id="path4007-8"
       inkscape:connector-curvature="0"
       sodipodi:nodetypes="cccc" />
    <rect
       style="fill:#ffffff;stroke:#2d2c2b;stroke-width:3;stroke-linecap:round;stroke-linejoin:round;stroke-miterlimit:4;stroke-opacity:1;stroke-dasharray:none;stroke-dashoffset:26.98754654000000031;fill-opacity:1"
       id="rect3994-8"
       width="170"
       height="220"
       x="660"
       y="380"
       rx="3"
       ry="3" />
    <path
       style="fill:none;stroke:#2d2c2b;stroke-width:1px;stroke-linecap:butt;stroke-linejoin:miter;stroke-opacity:1"
       d="m 650,412 10,0"
       id="path4041-1"
       inkscape:connector-curvature="0" />
    <path
       style="fill:none;stroke:#2d2c2b;stroke-width:1px;stroke-linecap:butt;stroke-linejoin:miter;stroke-opacity:1"
       d="m 650,420 10,0"
       id="path4041-6-7"
       inkscape:connector-curvature="0" />
    <path
       style="fill:none;stroke:#2d2c2b;stroke-width:1px;stroke-linecap:butt;stroke-linejoin:miter;stroke-opacity:1"
       d="m 650,428 10,0"
       id="path4041-5-3"
       inkscape:connector-curvature="0" />
    <path
       style="fill:none;stroke:#2d2c2b;stroke-width:1px;stroke-linecap:butt;stroke-linejoin:miter;stroke-opacity:1"
       d="m 650,416 10,0"
       id="path4041-2-9"
       inkscape:connector-curvature="0" />
    <path
       style="fill:none;stroke:#2d2c2b;stroke-width:1px;stroke-linecap:butt;stroke-linejoin:miter;stroke-opacity:1"
       d="m 650,424 10,0"
       id="path4041-8-5"
       inkscape:connector-curvature="0" />
    <path
       inkscape:connector-curvature="0"
       id="path4041-5-3-5"
       d="m 650,432 10,0"
       style="fill:none;stroke:#2d2c2b;stroke-width:1px;stroke-linecap:butt;stroke-linejoin:miter;stroke-opacity:1" />
    <path
       inkscape:connector-curvature="0"
       id="path4041-5-3-4"
       d="m 650,436 10,0"
       style="fill:none;stroke:#2d2c2b;stroke-width:1px;stroke-linecap:butt;stroke-linejoin:miter;stroke-opacity:1" />
    <path
       inkscape:connector-curvature="0"
       id="path4041-5-3-7"
       d="m 650,408 10,0"
       style="fill:none;stroke:#2d2c2b;stroke-width:1px;stroke-linecap:butt;stroke-linejoin:miter;stroke-opacity:1" />
    <path
       inkscape:connector-curvature="0"
       id="path4041-5-3-72"
       d="m 650,404 10,0"
       style="fill:none;stroke:#2d2c2b;stroke-width:1px;stroke-linecap:butt;stroke-linejoin:miter;stroke-opacity:1" />
    <rect
       style="fill:#ffffff;stroke:#2d2c2b;stroke-width:3;stroke-linecap:round;stroke-linejoin:round;stroke-miterlimit:4;stroke-opacity:1;stroke-dasharray:none;stroke-dashoffset:26.98754654000000031;fill-opacity:1"
       id="rect3994-8-8"
       width="170"
       height="190"
       x="140"
       y="-630"
       rx="3"
       ry="3"
       transform="matrix(0,1,-1,0,0,0)" />
    <rect
       style="fill:none;stroke:#2d2c2b;stroke-width:3;stroke-linecap:round;stroke-linejoin:round;stroke-miterlimit:4;stroke-opacity:1;stroke-dasharray:none;stroke-dashoffset:26.98754654"
       id="rect3994-8-8-2"
       width="100"
       height="150"
       x="160"
       y="-610"
       rx="3"
       ry="3"
       transform="matrix(0,1,-1,0,0,0)" />
    <rect
       style="fill:none;stroke:#2d2c2b;stroke-width:3;stroke-linecap:round;stroke-linejoin:round;stroke-miterlimit:4;stroke-opacity:1;stroke-dasharray:none;stroke-dashoffset:26.98754654"
       id="rect3994-8-8-2-3"
       width="20"
       height="25"
       x="275"
       y="-515"
       rx="2.5"
       ry="3"
       transform="matrix(0,1,-1,0,0,0)" />
    <rect
       style="fill:#ffed00;stroke:#2d2c2b;stroke-width:3;stroke-linecap:round;stroke-linejoin:round;stroke-miterlimit:4;stroke-opacity:1;stroke-dasharray:none;stroke-dashoffset:26.98754654"
       id="rect3994-8-8-2-3-8"
       width="10"
       height="20"
       x="275"
       y="-545"
       rx="2.5"
       ry="3"
       transform="matrix(0,1,-1,0,0,0)" />
    <rect
       style="fill:#8e7d32;stroke:#2d2c2b;stroke-width:3;stroke-linecap:round;stroke-linejoin:round;stroke-miterlimit:4;stroke-opacity:1;stroke-dasharray:none;stroke-dashoffset:26.98754654000000031"
       id="rect3994-8-8-2-3-8-4"
       width="10"
       height="20"
       x="275"
       y="-480"
       rx="2.5"
       ry="3"
       transform="matrix(0,1,-1,0,0,0)" />
    <path
       style="fill:#2d2c2b;fill-opacity:1;stroke:#2d2c2b;stroke-width:3;stroke-linecap:round;stroke-linejoin:round;stroke-miterlimit:4;stroke-opacity:1;stroke-dasharray:none"
       d="M 217.5,407.70039 220,400 l 40,40 -7.71739,2.483 L 217.5,407.70039"
       id="path4313-8"
       inkscape:connector-curvature="0"
       sodipodi:nodetypes="ccccc" />
    <g
       id="g4543"
       transform="translate(0,5)">
      <path
         sodipodi:nodetypes="cc"
         inkscape:connector-curvature="0"
         id="path4441"
         d="m 685,575 65,0"
         style="fill:none;stroke:#2d2c2b;stroke-width:3;stroke-linecap:round;stroke-linejoin:miter;stroke-miterlimit:4;stroke-opacity:1;stroke-dasharray:none" />
      <path
         sodipodi:nodetypes="cc"
         inkscape:connector-curvature="0"
         id="path4441-0"
         d="m 685,565 65,0"
         style="fill:none;stroke:#2d2c2b;stroke-width:3;stroke-linecap:round;stroke-linejoin:miter;stroke-miterlimit:4;stroke-opacity:1;stroke-dasharray:none" />
      <path
         sodipodi:nodetypes="cc"
         inkscape:connector-curvature="0"
         id="path4441-5"
         d="m 685,555 65,0"
         style="fill:none;stroke:#2d2c2b;stroke-width:3;stroke-linecap:round;stroke-linejoin:miter;stroke-miterlimit:4;stroke-opacity:1;stroke-dasharray:none" />
    </g>
    <path
       style="fill:none;stroke:#2d2c2b;stroke-width:1px;stroke-linecap:butt;stroke-linejoin:miter;stroke-opacity:1"
       d="m 550,685 10,0"
       id="path4041-6-72"
       inkscape:connector-curvature="0" />
    <path
       style="fill:none;stroke:#2d2c2b;stroke-width:1px;stroke-linecap:butt;stroke-linejoin:miter;stroke-opacity:1"
       d="m 550,695 10,0"
       id="path4041-6-9"
       inkscape:connector-curvature="0" />
    <path
       style="fill:#ffffff;stroke:#2d2c2b;stroke-width:3;stroke-linecap:butt;stroke-linejoin:round;stroke-miterlimit:4;stroke-opacity:1;stroke-dasharray:none;fill-opacity:1"
       d="m 830,560 15,0 0,10 -15,0 z"
       id="path4552-4"
       inkscape:connector-curvature="0"
       sodipodi:nodetypes="ccccc" />
    <path
       id="path6629"
       style="fill:#ffffff;stroke:#2d2c2b;stroke-width:3;stroke-linecap:butt;stroke-linejoin:miter;stroke-miterlimit:4;stroke-opacity:1;stroke-dasharray:none;fill-opacity:1"
       d="m 600,670 0,40 m -37,-40 154,0 c 1.662,0 3,1.338 3,3 l 0,34 c 0,1.662 -1.338,3 -3,3 l -154,0 c -1.662,0 -3,-1.338 -3,-3 l 0,-34 c 0,-1.662 1.338,-3 3,-3 z" />
    <path
       style="fill:#ffffff;fill-opacity:1;stroke:#2d2c2b;stroke-width:3;stroke-linecap:round;stroke-linejoin:round;stroke-miterlimit:4;stroke-opacity:1;stroke-dasharray:none;display:inline"
       d="m 220,400 7.5,-2.29961 35,35 L 260,440"
       id="path4313-8-2"
       inkscape:connector-curvature="0"
       sodipodi:nodetypes="cccc" />
    <path
       style="fill:#ffffff;fill-opacity:1;stroke:#2d2c2b;stroke-width:3;stroke-linecap:round;stroke-linejoin:round;stroke-miterlimit:4;stroke-opacity:1;stroke-dasharray:none;display:inline"
       d="m 216.017,678.91739 2.5,-7.70039 40,40 -7.71739,2.483 -34.78261,-34.78261"
       id="path4313-8-0"
       inkscape:connector-curvature="0"
       sodipodi:nodetypes="ccccc" />
    <rect
       style="fill:none;stroke:#2d2c2b;stroke-width:3;stroke-linecap:round;stroke-linejoin:round;stroke-miterlimit:4;stroke-opacity:1;stroke-dasharray:none;stroke-dashoffset:26.98754654;display:inline"
       id="rect3994-8-8-2-3-9"
       width="20"
       height="25"
       x="275"
       y="-610"
       rx="2.5"
       ry="3"
       transform="matrix(0,1,-1,0,0,0)" />
    <rect
       style="fill:#9cc336;stroke:#2d2c2b;stroke-width:3;stroke-linecap:round;stroke-linejoin:round;stroke-miterlimit:4;stroke-opacity:1;stroke-dasharray:none;stroke-dashoffset:26.98754654000000031;display:inline"
       id="rect3994-8-8-2-3-8-4-2"
       width="10"
       height="10"
       x="275"
       y="-575"
       rx="2.5"
       ry="3"
       transform="matrix(0,1,-1,0,0,0)" />
    <g
       id="g6411"
       transform="translate(-0.39959395,0)"
       style="stroke:#706e6c;stroke-opacity:1;stroke-width:2;stroke-miterlimit:4;stroke-dasharray:none">
      <path
         sodipodi:open="true"
         sodipodi:end="10.412634"
         sodipodi:start="5.3284902"
         transform="translate(3,1)"
         d="m 597.88929,280.91931 c 2.2537,1.59571 2.78711,4.71628 1.1914,6.96998 -1.59571,2.2537 -4.71628,2.78711 -6.96998,1.1914 -2.2537,-1.59571 -2.78711,-4.71628 -1.1914,-6.96998 0.35907,-0.50713 0.80953,-0.94289 1.32828,-1.28495"
         sodipodi:ry="5"
         sodipodi:rx="5"
         sodipodi:cy="285"
         sodipodi:cx="595"
         id="path6407"
         style="fill:none;stroke:#706e6c;stroke-width:2;stroke-linecap:round;stroke-linejoin:round;stroke-miterlimit:4;stroke-opacity:1;stroke-dasharray:none;stroke-dashoffset:0"
         sodipodi:type="arc" />
      <path
         sodipodi:nodetypes="cc"
         inkscape:connector-curvature="0"
         id="path6409"
         d="m 598,279 0,6"
         style="fill:none;stroke:#706e6c;stroke-width:2;stroke-linecap:round;stroke-linejoin:miter;stroke-miterlimit:4;stroke-opacity:1;stroke-dasharray:none" />
    </g>
    <path
       style="fill:#ffffff;fill-opacity:1;stroke:#2d2c2b;stroke-width:3;stroke-linecap:round;stroke-linejoin:round;stroke-miterlimit:4;stroke-opacity:1;stroke-dasharray:none;stroke-dashoffset:0"
       d="m 782.49301,448.37117 c -8.00198,2.14413 -16.22704,-2.60461 -18.37117,-10.6066 -2.14413,-8.00199 2.60461,-16.22705 10.6066,-18.37117 8.002,-2.14414 16.22706,2.6046 18.37117,10.6066 l 3.88229,14.48889 z"
       id="path6297"
       inkscape:connector-curvature="0"
       sodipodi:nodetypes="sssscs" />
    <text
       xml:space="preserve"
       style="font-size:16px;font-style:normal;font-variant:normal;font-weight:bold;font-stretch:normal;line-height:126.99999809000000539%;letter-spacing:0px;word-spacing:0px;fill:#2d2c2b;fill-opacity:1;stroke:none;font-family:Helvetica Rounded LT Std;-inkscape-font-specification:Helvetica Rounded LT Std Bold"
       x="776.06586"
       y="411.28714"
       id="text6300"
       sodipodi:linespacing="127%"><tspan
         sodipodi:role="line"
         id="tspan6302"
         x="776.06586"
         y="411.28714">0</tspan></text>
    <text
       xml:space="preserve"
       style="font-size:16px;font-style:normal;font-variant:normal;font-weight:bold;font-stretch:normal;line-height:126.99999809000000539%;letter-spacing:0px;word-spacing:0px;fill:#2d2c2b;fill-opacity:1;stroke:none;display:inline;font-family:Helvetica Rounded LT Std;-inkscape-font-specification:Helvetica Rounded LT Std Bold"
       x="801.06586"
       y="426.28714"
       id="text6300-5"
       sodipodi:linespacing="127%"><tspan
         sodipodi:role="line"
         id="tspan6302-0"
         x="801.06586"
         y="426.28714">1</tspan></text>
    <text
       xml:space="preserve"
       style="font-size:16px;font-style:normal;font-variant:normal;font-weight:bold;font-stretch:normal;line-height:126.99999808999999118%;letter-spacing:0px;word-spacing:0px;fill:#2d2c2b;fill-opacity:1;stroke:none;display:inline;font-family:Helvetica Rounded LT Std;-inkscape-font-specification:Helvetica Rounded LT Std Bold"
       x="799.86597"
       y="452.78714"
       id="text6300-59"
       sodipodi:linespacing="127%"><tspan
         sodipodi:role="line"
         id="tspan6302-05"
         x="799.86597"
         y="452.78714">2</tspan></text>
    <path
       style="fill:none;stroke:#2d2c2b;stroke-width:3;stroke-linecap:round;stroke-linejoin:round;stroke-miterlimit:4;stroke-dashoffset:0;stroke-opacity:1"
       d="m 692.5,410 50,0 c 1.385,0 2.5,1.338 2.5,3 l 0,104 c 0,1.662 -1.115,3 -2.5,3 l -50,0 c -1.385,0 -2.5,-1.338 -2.5,-3 l 0,-104 c 0,-1.662 1.115,-3 2.5,-3 z"
       id="rect6454" />
    <path
       style="fill:none;stroke:#2d2c2b;stroke-width:2;stroke-linecap:round;stroke-linejoin:round;stroke-miterlimit:4;stroke-dashoffset:0;stroke-opacity:1;stroke-dasharray:none"
       d="m 698.5,416 c 1.385,0 2.5,1.115 2.5,2.5 0,1.385 -1.115,2.5 -2.5,2.5 -1.385,0 -2.5,-1.115 -2.5,-2.5 0,-1.385 1.115,-2.5 2.5,-2.5 z"
       id="rect6456" />
    <path
       style="fill:none;stroke:#2d2c2b;stroke-width:2;stroke-linecap:round;stroke-linejoin:round;stroke-miterlimit:4;stroke-dashoffset:0;stroke-opacity:1;stroke-dasharray:none"
       d="m 736.5,416 c 1.385,0 2.5,1.115 2.5,2.5 0,1.385 -1.115,2.5 -2.5,2.5 -1.385,0 -2.5,-1.115 -2.5,-2.5 0,-1.385 1.115,-2.5 2.5,-2.5 z"
       id="rect6456-4" />
    <path
       style="fill:none;stroke:#2d2c2b;stroke-width:2;stroke-linecap:round;stroke-linejoin:round;stroke-miterlimit:4;stroke-dashoffset:0;stroke-opacity:1;stroke-dasharray:none"
       d="m 698.5,509 c 1.385,0 2.5,1.115 2.5,2.5 0,1.385 -1.115,2.5 -2.5,2.5 -1.385,0 -2.5,-1.115 -2.5,-2.5 0,-1.385 1.115,-2.5 2.5,-2.5 z"
       id="rect6456-0" />
    <path
       style="fill:none;stroke:#2d2c2b;stroke-width:2;stroke-linecap:round;stroke-linejoin:round;stroke-miterlimit:4;stroke-dashoffset:0;stroke-opacity:1;stroke-dasharray:none"
       d="m 736.5,509 c 1.385,0 2.5,1.115 2.5,2.5 0,1.385 -1.115,2.5 -2.5,2.5 -1.385,0 -2.5,-1.115 -2.5,-2.5 0,-1.385 1.115,-2.5 2.5,-2.5 z"
       id="rect6456-4-3" />
    <path
       style="fill:#ffffff;fill-opacity:1;stroke:#2d2c2b;stroke-width:3;stroke-linecap:round;stroke-linejoin:round;stroke-miterlimit:4;stroke-opacity:1;stroke-dasharray:none;display:inline"
       d="m 116.3,395.4087 7.21276,-3.67724 0,56.56854 -7.21276,-3.70126 0,-49.19004"
       id="path4313-8-1"
       inkscape:connector-curvature="0"
       sodipodi:nodetypes="ccccc" />
    <path
       style="fill:#ffffff;fill-opacity:1;stroke:#2d2c2b;stroke-width:3;stroke-linecap:round;stroke-linejoin:round;stroke-miterlimit:4;stroke-opacity:1;stroke-dasharray:none;display:inline"
       d="m 264.5913,336.28724 3.67724,7.21276 -56.56854,0 3.70126,-7.21276 49.19004,0"
       id="path4313-8-1-1"
       inkscape:connector-curvature="0"
       sodipodi:nodetypes="ccccc" />
    <g
       id="sample"
       inkscape:label="#g4176">
      <path
         d="m 465,416 -50,0 0,8 50.05435,0 -0.0543,-8 M 440,400 c -9.6754,0 -17.7402,6.87164 -19.59375,16 l 39.1875,0 C 457.7402,406.87164 449.6754,400 440,400 z m -19.59375,24 c 1.85355,9.12836 9.91835,16 19.59375,16 9.6754,0 17.7402,-6.87164 19.59375,-16 l -39.1875,0 z"
         style="fill:#ffffff;fill-opacity:1;stroke:#2d2c2b;stroke-width:3;stroke-linecap:round;stroke-linejoin:round;stroke-miterlimit:4;stroke-opacity:1;stroke-dasharray:none;display:inline"
         id="path4490" />
      <path
         id="rect4496"
         d="m 433,410 14,0 c 1.662,0 3,1.338 3,3 l 0,14 c 0,1.662 -1.338,3 -3,3 l -14,0 c -1.662,0 -3,-1.338 -3,-3 l 0,-14 c 0,-1.662 1.338,-3 3,-3 z"
         style="fill:#cce2f4;fill-opacity:1;stroke:#2d2c2b;stroke-width:3;stroke-linecap:round;stroke-linejoin:round;stroke-miterlimit:4;stroke-dashoffset:26.98754654;stroke-opacity:1" />
    </g>
    <g
       id="g4134">
      <path
         id="path4575-8"
         d="m 677,685 0,15 27.5,0 c 3,0 5.00003,-3 5,-5 l 0,-5 c 0,-2 -2,-5 -5,-5 l -27.5,0 z m 11.59375,2.96875 c 2.832,0 4.375,1.87425 4.375,4.40625 0,2.43599 -1.423,4.625 -4.375,4.625 -3.09599,0 -4.375,-2.00901 -4.375,-4.625 0,-2.532 1.54301,-4.40625 4.375,-4.40625 z m 7,0.0312 c 0.408,0 0.784,0.17125 1,0.53125 l 3.4375,5.53125 0.0312,0 0,-5.125 c 0,-0.636 0.3495,-0.9375 0.9375,-0.9375 0.588,0 0.96875,0.3015 0.96875,0.9375 l 0,6.78125 c 0,0.77999 -0.3595,1.25 -1.1875,1.25 -0.624,0 -0.8105,-0.13525 -1.0625,-0.53125 l -3.4375,-5.40625 0,4.96875 c 0,0.636 -0.38075,0.96875 -0.96875,0.96875 -0.588,0 -0.9375,-0.33275 -0.9375,-0.96875 l 0,-6.84375 c 0,-0.816 0.37875,-1.15625 1.21875,-1.15625 z m -7,1.53125 c -1.608,0 -2.40625,1.18775 -2.40625,2.84375 0,1.65599 0.55825,3.03125 2.40625,3.03125 1.788,0 2.40625,-1.37526 2.40625,-3.03125 0,-1.656 -0.79825,-2.84375 -2.40625,-2.84375 z"
         style="fill:#00a784;fill-opacity:1;stroke:none;display:inline"
         inkscape:connector-curvature="0" />
      <path
         id="path4575-1"
         d="m 649.5,685 c -3,0 -5,3 -5,5 l 0,5 c 0,2 2,5 5,5 l 27.5,0 0,-15 -27.5,0 z m 2.96875,2.9375 c 2.832,0 4.375,1.9055 4.375,4.4375 0,2.436 -1.423,4.625 -4.375,4.625 -3.096,0 -4.375,-2.009 -4.375,-4.625 0,-2.532 1.543,-4.4375 4.375,-4.4375 z m 6.75,0.21875 4.34375,0 c 0.576,0 1,0.15725 1,0.78125 0,0.624 -0.424,0.8125 -1,0.8125 l -3.5,0 0,2 2.96875,0 c 0.516,0 0.90625,0.138 0.90625,0.75 0,0.612 -0.39025,0.78125 -0.90625,0.78125 l -2.96875,0 0,2.6875 c 0,0.588 -0.4,0.96875 -1,0.96875 -0.6,0 -0.96875,-0.38075 -0.96875,-0.96875 l 0,-6.65625 c 0,-0.876 0.429,-1.15625 1.125,-1.15625 z m 7.34375,0 4.3125,0 c 0.576,0 1,0.15725 1,0.78125 0,0.624 -0.424,0.8125 -1,0.8125 l -3.5,0 0,2 2.96875,0 c 0.516,0 0.9375,0.138 0.9375,0.75 0,0.612 -0.4215,0.78125 -0.9375,0.78125 l -2.96875,0 0,2.6875 c 0,0.588 -0.4,0.96875 -1,0.96875 -0.6,0 -0.96875,-0.38075 -0.96875,-0.96875 l 0,-6.65625 c 0,-0.876 0.46025,-1.15625 1.15625,-1.15625 z m -14.09375,1.375 c -1.608,0 -2.40625,1.18775 -2.40625,2.84375 0,1.656 0.55825,3.03125 2.40625,3.03125 1.788,0 2.40625,-1.37525 2.40625,-3.03125 0,-1.656 -0.79825,-2.84375 -2.40625,-2.84375 z"
         style="fill:#d71e38;fill-opacity:1;stroke:none;display:inline"
         inkscape:connector-curvature="0" />
      <path
         inkscape:label="#path4575-7"
         sodipodi:nodetypes="ccccccccc"
         inkscape:connector-curvature="0"
         id="path4575-7"
         d="m 645,690 0,5 c 0,2 2,5 5,5 l 55,0 c 3,0 5,-3 5,-5 l 0,-5 c 0,-2 -2,-5 -5,-5 l -55,0 c -3,0 -5,3 -5,5 z"
         style="fill:none;stroke:#2d2c2b;stroke-width:3;stroke-linecap:butt;stroke-linejoin:miter;stroke-miterlimit:4;stroke-opacity:1;stroke-dasharray:none" />
    </g>
    <path
       style="fill:#ffffff;fill-opacity:1;stroke:#2d2c2b;stroke-width:3;stroke-linecap:butt;stroke-linejoin:miter;stroke-miterlimit:4;stroke-opacity:1;stroke-dasharray:none;display:inline"
       d="m 645,690 0,5 c 0,2 2,5 5,5 l 25,0 c 3,0 5,-3 5,-5 l 0,-5 c 0,-2 -2,-5 -5,-5 l -25,0 c -3,0 -5,3 -5,5 z"
       id="laser-button"
       inkscape:connector-curvature="0"
       sodipodi:nodetypes="ccccccccc"
       inkscape:label="#path4575-7" />
  </g>
  <g
     inkscape:groupmode="layer"
     id="layer4"
     inkscape:label="ekran-wykres"
     style="display:inline"
     sodipodi:insensitive="true">
    <path
       style="fill:none;stroke:#e3007d;stroke-width:3;stroke-linecap:butt;stroke-linejoin:miter;stroke-miterlimit:4;stroke-opacity:1;stroke-dasharray:none"
       d="m 460,245 c 35,0 40,-65 45,-65 5,0 5,60 15,60 10,0 5,-25 20,-25 15,0 10,30 70,30"
       id="path4573"
       inkscape:connector-curvature="0"
       sodipodi:nodetypes="czzzc" />
  </g>
  <g
     inkscape:groupmode="layer"
     id="layer5"
     inkscape:label="ramki">
    <rect
       style="fill:none;stroke:#c9c8c7;stroke-width:3;stroke-miterlimit:4;stroke-opacity:1;stroke-dasharray:18,6;stroke-dashoffset:14.4;stroke-linecap:round;stroke-linejoin:round"
       id="frame_B-border"
       width="240"
       height="310"
       x="80"
       y="280"
       rx="2.5"
       ry="3" />
    <rect
       style="fill:none;stroke:#c9c8c7;stroke-width:3;stroke-linecap:round;stroke-linejoin:round;stroke-miterlimit:4;stroke-opacity:1;stroke-dasharray:18,6;stroke-dashoffset:12.3"
       id="frame_A-border"
       width="260"
       height="80"
       x="480"
       y="650"
       rx="2.5"
       ry="3" />
    <rect
       style="fill:none;stroke:#c9c8c7;stroke-width:3;stroke-linecap:round;stroke-linejoin:round;stroke-miterlimit:4;stroke-opacity:1;stroke-dasharray:18,6;stroke-dashoffset:6"
       id="frame_D-border"
       width="320"
       height="260"
       x="570"
       y="360"
       rx="2.5"
       ry="3"
       inkscape:label="#frame_D-border" />
    <rect
       style="fill:none;stroke:#c9c8c7;stroke-width:3;stroke-linecap:round;stroke-linejoin:round;stroke-miterlimit:4;stroke-opacity:1;stroke-dasharray:18,6;stroke-dashoffset:15"
       id="frame_C-border"
       width="140"
       height="100"
       x="370"
       y="370"
       rx="2.5"
       ry="3" />
    <rect
       style="fill:none;stroke:#c9c8c7;stroke-width:3;stroke-linecap:round;stroke-linejoin:round;stroke-miterlimit:4;stroke-opacity:1;stroke-dasharray:18,6;stroke-dashoffset:4.8"
       id="frame_E-border"
       width="270"
       height="240"
       x="400"
       y="100"
       rx="2.5"
       ry="3" />
    <path
       style="fill:none;stroke:#c9c8c7;stroke-width:2;stroke-linecap:round;stroke-linejoin:round;stroke-miterlimit:4;stroke-opacity:1;stroke-dasharray:none"
       d="m 445,620 30,0 65,45"
       id="frame_A-label"
       inkscape:connector-curvature="0"
       sodipodi:nodetypes="ccc" />
    <path
       style="fill:none;stroke:#c9c8c7;stroke-width:2;stroke-linecap:round;stroke-linejoin:round;stroke-miterlimit:4;stroke-opacity:1;stroke-dasharray:none"
       d="m 745,125 -35,0 -60,45"
       id="frame_E-label"
       inkscape:connector-curvature="0"
       sodipodi:nodetypes="ccc" />
    <path
       style="fill:none;stroke:#c9c8c7;stroke-width:2;stroke-linecap:round;stroke-linejoin:round;stroke-miterlimit:4;stroke-opacity:1;stroke-dasharray:none"
       d="m 890,660 -40,0 -60,-50"
       id="frame_D-label"
       inkscape:connector-curvature="0"
       sodipodi:nodetypes="ccc" />
    <path
       style="fill:none;stroke:#c9c8c7;stroke-width:2;stroke-linecap:round;stroke-linejoin:round;stroke-miterlimit:4;stroke-opacity:1;stroke-dasharray:none"
       d="m 510,510 -30,0 -60,-50"
       id="frame_C-label"
       inkscape:connector-curvature="0"
       sodipodi:nodetypes="ccc" />
    <path
       style="fill:none;stroke:#c9c8c7;stroke-width:2;stroke-linecap:round;stroke-linejoin:round;stroke-miterlimit:4;stroke-opacity:1;stroke-dasharray:none"
       d="m 320,250 -30,0 -60,50"
       id="frame_B-label"
       inkscape:connector-curvature="0"
       sodipodi:nodetypes="ccc" />
    <g
       style="font-size:32px;font-style:normal;font-variant:normal;font-weight:bold;font-stretch:normal;line-height:126.99999809%;letter-spacing:0px;word-spacing:0px;fill:#c9c8c7;fill-opacity:1;stroke:none;font-family:Helvetica Rounded LT Std;-inkscape-font-specification:Helvetica Rounded LT Std Bold"
       id="frame_B-label_name">
      <path
         d="m 297.73202,241.928 c 0,2.336 1.216,3.072 3.072,3.072 l 7.712,0 c 4.54399,0 8.48,-1.984 8.48,-6.816 0,-3.168 -1.6,-4.896 -4.032,-5.536 l 0,-0.064 c 2.176,-0.864 3.232,-2.72 3.232,-4.672 0,-5.08799 -4.57601,-5.952 -8.416,-5.952 l -6.976,0 c -1.856,0 -3.072,0.736 -3.072,3.072 l 0,16.896 m 5.248,-7.168 3.776,0 c 2.56,0 4.992,0.352 4.992,3.136 0,2.656 -2.304,3.072 -4.352,3.072 l -4.416,0 0,-6.208 m 0,-8.96 4.16,0 c 1.952,0 3.808,0.608 3.808,2.816 0,1.824 -1.184,2.816 -3.648,2.816 l -4.32,0 0,-5.632"
         style=""
         id="path4114" />
    </g>
    <g
       style="font-size:32px;font-style:normal;font-variant:normal;font-weight:bold;font-stretch:normal;line-height:126.99999809%;letter-spacing:0px;word-spacing:0px;fill:#c9c8c7;fill-opacity:1;stroke:none;font-family:Helvetica Rounded LT Std;-inkscape-font-specification:Helvetica Rounded LT Std Bold"
       id="frame_A-label_name"
       transform="translate(5,0)">
      <path
         d="m 443.50004,612.19591 c -0.192,0.512 -0.512,1.44001 -0.512,2.016 0,1.408 0.992,2.304 2.432,2.304 1.248,0 1.984,-0.416 2.336,-1.44 l 1.376,-3.84 8.448,0 1.344,3.84 c 0.384,1.024 1.216,1.44 2.368,1.44 1.344,0 2.464,-1.024 2.464,-2.304 0,-0.57599 -0.32,-1.504 -0.512,-2.016 l -6.336,-17.632 c -0.576,-1.63199 -1.632,-1.92 -2.816,-1.92 l -1.248,0 c -1.28,0 -2.112,0.41601 -2.56,1.6 l -6.784,17.952 m 12.928,-4.608 -6.144,0 3.104,-9.248 0.064,0 2.976,9.248"
         id="path4117"
         inkscape:connector-curvature="0" />
    </g>
    <g
       style="font-size:32px;font-style:normal;font-variant:normal;font-weight:bold;font-stretch:normal;line-height:126.99999809%;letter-spacing:0px;word-spacing:0px;fill:#c9c8c7;fill-opacity:1;stroke:none;font-family:Helvetica Rounded LT Std;-inkscape-font-specification:Helvetica Rounded LT Std Bold"
       id="frame_C-label_name"
       transform="translate(5,0)">
      <path
         d="m 481.696,493.48 c 0,7.93599 4.25601,12.064 11.456,12.064 5.08799,0 9.12,-3.296 9.12,-6.624 0,-1.28 -1.28,-2.016 -2.56,-2.016 -2.528,0 -2.432,4.416 -6.56,4.416 -4.544,0 -6.208,-3.648 -6.208,-7.84 0,-4.992 2.72,-7.84 6.016,-7.84 4.8,0 3.904,4.16 6.944,4.16 1.568,0 2.368,-0.896 2.368,-2.368 0,-2.24 -3.29601,-6.016 -9.312,-6.016 -7.42399,0 -11.264,5.56801 -11.264,12.064"
         id="path4120"
         inkscape:connector-curvature="0" />
    </g>
    <g
       style="font-size:32px;font-style:normal;font-variant:normal;font-weight:bold;font-stretch:normal;line-height:126.99999809%;letter-spacing:0px;word-spacing:0px;fill:#c9c8c7;fill-opacity:1;stroke:none;font-family:Helvetica Rounded LT Std;-inkscape-font-specification:Helvetica Rounded LT Std Bold"
       id="frame_D-label_name">
      <path
         d="m 862.432,651.928 c 0,2.336 1.216,3.072 3.072,3.072 l 6.304,0 c 7.00799,0 11.072,-4.22401 11.072,-11.52 0,-9.02399 -5.24801,-11.52 -10.976,-11.52 l -6.4,0 c -1.856,0 -3.072,0.736 -3.072,3.072 l 0,16.896 m 5.248,-15.744 4.384,0 c 3.84,0 5.568,2.752 5.568,7.296 0,3.552 -1.344,7.296 -5.536,7.296 l -4.416,0 0,-14.592"
         style=""
         id="path4126" />
    </g>
    <g
       style="font-size:32px;font-style:normal;font-variant:normal;font-weight:bold;font-stretch:normal;line-height:126.99999809%;letter-spacing:0px;word-spacing:0px;fill:#c9c8c7;fill-opacity:1;stroke:none;font-family:Helvetica Rounded LT Std;-inkscape-font-specification:Helvetica Rounded LT Std Bold"
       id="frame_E-label_name">
      <path
         d="m 722.56,116.928 c 0,2.336 1.216,3.072 3.072,3.072 l 12.576,0 c 1.536,0 2.656,-0.448 2.656,-2.112 0,-1.664 -1.12,-2.112 -2.656,-2.112 l -10.4,0 0,-5.568 8.896,0 c 1.376,0 2.464,-0.384 2.464,-2.016 0,-1.632 -1.088,-2.016 -2.464,-2.016 l -8.896,0 0,-4.992 10.144,0 c 1.536,0 2.656,-0.448 2.656,-2.112 0,-1.663998 -1.12,-2.112 -2.656,-2.112 l -12.32,0 c -1.856,0 -3.072,0.736002 -3.072,3.072 l 0,16.896"
         style=""
         id="path4123" />
    </g>
  </g>
</svg>
